<?xml version="1.0" encoding="iso-8859-1"?>
<!-- Generator: Adobe Illustrator 19.0.0, SVG Export Plug-In . SVG Version: 6.00 Build 0)  -->
<svg version="1.1" id="Layer_1" xmlns="http://www.w3.org/2000/svg" xmlns:xlink="http://www.w3.org/1999/xlink" x="0px" y="0px"
	 viewBox="0 0 512.001 512.001" style="enable-background:new 0 0 512.001 512.001;" xml:space="preserve">
<polygon style="fill:#E8655A;" points="472.008,10.199 127.515,10.199 127.515,393.797 377.66,393.797 472.008,299.45 "/>
<polygon style="fill:#FFBA57;" points="472.008,299.45 377.66,393.797 377.66,299.45 "/>
<circle style="fill:#E6E6E6;" cx="127.511" cy="97.719" r="87.519"/>
<path style="fill:#E8655A;" d="M39.994,414.28c0,48.336,39.184,87.52,87.52,87.52s87.52-39.184,87.52-87.52V97.72
	c0,48.336-39.184,87.52-87.52,87.52s-87.52-39.184-87.52-87.52L39.994,414.28L39.994,414.28z"/>
<circle style="fill:#FFBA57;" cx="127.511" cy="97.719" r="20.48"/>
<g>
	<path style="fill:#603813;" d="M472.008,0H127.513c-53.882,0-97.72,43.836-97.72,97.72v316.562c0,53.882,43.836,97.72,97.72,97.72
		s97.72-43.836,97.72-97.72v-10.284H377.66c2.705,0,5.298-1.075,7.212-2.987l94.348-94.348c1.912-1.912,2.987-4.507,2.987-7.212
		V10.199C482.207,4.566,477.641,0,472.008,0z M127.513,20.398c42.635,0,77.321,34.685,77.321,77.321s-34.686,77.321-77.321,77.321
		S50.192,140.355,50.192,97.72S84.88,20.398,127.513,20.398z M204.835,414.28c0,42.635-34.686,77.321-77.321,77.321
		s-77.321-34.685-77.321-77.321V157.41v-0.011c17.887,23.122,45.893,38.039,77.321,38.039s59.434-14.917,77.321-38.039v0.011V414.28
		z M225.233,97.72c0-31.428-14.917-59.433-38.038-77.321h274.614V289.25H377.66c-5.632,0-10.199,4.566-10.199,10.199v84.149H225.233
		V97.72z M417.622,339.411l-29.762,29.762v-59.525h59.525L417.622,339.411z"/>
	<path style="fill:#603813;" d="M127.513,128.402c16.918,0,30.683-13.765,30.683-30.682s-13.765-30.682-30.683-30.682
		S96.831,80.801,96.831,97.72S110.596,128.402,127.513,128.402z M127.513,87.435c5.672,0,10.285,4.613,10.285,10.284
		s-4.613,10.284-10.285,10.284c-5.671,0-10.284-4.613-10.284-10.284S121.844,87.435,127.513,87.435z"/>
	<path style="fill:#603813;" d="M71.395,364.112c-5.632,0-10.199,4.566-10.199,10.199v7.139c0,5.633,4.567,10.199,10.199,10.199
		s10.199-4.566,10.199-10.199v-7.139C81.595,368.678,77.027,364.112,71.395,364.112z"/>
	<path style="fill:#603813;" d="M71.395,200.924c-5.632,0-10.199,4.566-10.199,10.199v129.53c0,5.633,4.567,10.199,10.199,10.199
		s10.199-4.566,10.199-10.199v-129.53C81.595,205.49,77.027,200.924,71.395,200.924z"/>
</g>
<g>
</g>
<g>
</g>
<g>
</g>
<g>
</g>
<g>
</g>
<g>
</g>
<g>
</g>
<g>
</g>
<g>
</g>
<g>
</g>
<g>
</g>
<g>
</g>
<g>
</g>
<g>
</g>
<g>
</g>
</svg>
